<?xml version="1.0" encoding="UTF-8"?>
<svg version="1.1" xmlns="http://www.w3.org/2000/svg" width="512" height="512">
<path d="M0 0 C6.1563653 -0.09908722 12.3122635 -0.17157253 18.46923828 -0.21972656 C20.56241953 -0.23980659 22.65554492 -0.2670764 24.74853516 -0.30175781 C27.76218469 -0.35043434 30.77509073 -0.37300512 33.7890625 -0.390625 C34.72054108 -0.41127014 35.65201965 -0.43191528 36.61172485 -0.45318604 C42.27005974 -0.45512766 45.52774682 0.18801528 50 4 C53.98625442 8.40586015 54.54525909 11.93748653 54.34765625 17.66796875 C53.91030361 20.60167129 52.59462035 22.53558674 51 25 C51.6501992 27.21734114 51.6501992 27.21734114 53 29 C55.07794433 33.15588866 54.75028694 38.72341506 53.31640625 43.07421875 C51.07044268 47.37043951 48.20228698 49.72376122 44 52 C39.83133626 53.27323277 35.68814984 53.14368754 31.3671875 53.1328125 C30.11761765 53.13424759 30.11761765 53.13424759 28.84280396 53.13571167 C27.08611983 53.13639092 25.32943318 53.13455443 23.57275391 53.13037109 C20.87787278 53.12500572 18.1831573 53.13033162 15.48828125 53.13671875 C13.78124963 53.13605819 12.07421812 53.13477748 10.3671875 53.1328125 C9.55885468 53.13483673 8.75052185 53.13686096 7.91769409 53.13894653 C2.22993779 53.11496889 2.22993779 53.11496889 0 52 C0 48.37 0 44.74 0 41 C1.13542236 40.98541748 2.27084473 40.97083496 3.44067383 40.95581055 C7.65095609 40.89786324 11.8607015 40.82063059 16.07055664 40.73754883 C17.89305919 40.7042826 19.71566519 40.67625594 21.53833008 40.65356445 C24.1575125 40.62004919 26.77574548 40.56773648 29.39453125 40.51171875 C30.61811089 40.50213387 30.61811089 40.50213387 31.8664093 40.49235535 C36.08146829 40.4605417 36.08146829 40.4605417 39.80180359 38.72297668 C40.1972084 38.15439438 40.59261322 37.58581207 41 37 C40.505 35.02 40.505 35.02 40 33 C20.2 32.505 20.2 32.505 0 32 C0 21 0 21 1 20 C3.88252645 19.83976438 6.74378527 19.74045971 9.62890625 19.68359375 C10.92525246 19.6524221 10.92525246 19.6524221 12.24778748 19.62062073 C15.01927445 19.55502886 17.79085921 19.49619582 20.5625 19.4375 C22.43685923 19.39432392 24.31120843 19.35070994 26.18554688 19.30664062 C30.79026336 19.19933773 35.39507858 19.09809785 40 19 C41.00076873 16.07152283 41.00076873 16.07152283 40.08447266 13.26611328 C36.79417919 11.26758179 33.37897826 11.65433461 29.6484375 11.7421875 C28.83380035 11.74880402 28.01916321 11.75542053 27.17984009 11.76223755 C24.57784311 11.78565088 21.97669449 11.82938151 19.375 11.875 C16.76626704 11.91000689 14.15757911 11.94078093 11.54873657 11.96633911 C9.92494006 11.98338172 8.30119482 12.00657632 6.67758179 12.03634644 C4.78518436 12.06160899 2.89222315 12.03602456 1 12 C0 11 0 11 -0.09765625 8.49609375 C-0.08605469 7.48675781 -0.07445312 6.47742188 -0.0625 5.4375 C-0.05347656 4.42558594 -0.04445312 3.41367188 -0.03515625 2.37109375 C-0.02355469 1.58863281 -0.01195312 0.80617187 0 0 Z " fill="#50CB59" transform="translate(169,234)"/>
<path d="M0 0 C12 0 12 0 16.25 3.375 C19 6.55714286 19 6.55714286 19 9 C19.66 9 20.32 9 21 9 C22.48046875 10.46875 22.48046875 10.46875 24.1875 12.5 C27.29922661 16.17392932 30.48152755 19.7686304 33.71484375 23.3359375 C35 25 35 25 35 27 C35.66 27 36.32 27 37 27 C38.625 29 38.625 29 40 31 C41.0991511 27.70254671 41.09878513 25.30469513 41.0625 21.8359375 C41.05089844 20.02996094 41.05089844 20.02996094 41.0390625 18.1875 C41.02617187 16.929375 41.01328125 15.67125 41 14.375 C40.97462174 11.88285464 40.95354435 9.39066043 40.9375 6.8984375 C40.92589844 5.79161621 40.91429687 4.68479492 40.90234375 3.54443359 C41 1 41 1 42 0 C45.96 0 49.92 0 54 0 C54 17.49 54 34.98 54 53 C42 53 42 53 38.51953125 50.54296875 C37.58161379 49.45413726 36.67956172 48.33355723 35.8125 47.1875 C35.32040039 46.5987207 34.82830078 46.00994141 34.32128906 45.40332031 C32.84704595 43.62676647 31.4228368 41.8178167 30 40 C28.4175713 38.08258639 26.83431632 36.16585421 25.25 34.25 C24.61578125 33.45078125 23.9815625 32.6515625 23.328125 31.828125 C19.9991355 27.78418473 16.49731087 23.89846672 13 20 C13.00523682 20.9286084 13.01047363 21.8572168 13.01586914 22.81396484 C13.03289593 26.25423805 13.04544273 29.69446659 13.05493164 33.13476562 C13.05996514 34.62468166 13.06679242 36.11459274 13.07543945 37.60449219 C13.08754805 39.74415304 13.09323807 41.88374868 13.09765625 44.0234375 C13.10289307 45.31169434 13.10812988 46.59995117 13.11352539 47.92724609 C13 51 13 51 12 53 C8.04 53 4.08 53 0 53 C0 35.51 0 18.02 0 0 Z " fill="#4EC959" transform="translate(352,234)"/>
<path d="M0 0 C6.03228065 -0.07424697 12.06429432 -0.1286483 18.09692383 -0.16479492 C20.14840326 -0.17986622 22.19985056 -0.20032682 24.2512207 -0.22631836 C27.20271748 -0.26277424 30.15378763 -0.27974306 33.10546875 -0.29296875 C34.47761787 -0.31619453 34.47761787 -0.31619453 35.87748718 -0.33988953 C42.60329515 -0.34166058 45.85771284 0.90640119 50.75 5.6875 C53.52237561 9.22074842 54.14613738 12.56430068 54 17 C53.05822226 22.55648868 51.40203789 25.47836969 47 29 C43.37761312 30.77941812 39.91270679 32.07533406 36 33 C41.41619485 37.89455313 46.83911411 42.76924844 52.40625 47.4921875 C54 49 54 49 56 52 C53.69012138 54.30987862 49.37776779 53.77976581 46.27856445 53.875 C37.31777902 53.55575955 31.9629964 47.02746123 26 41 C18.63815077 33.61546402 13.32139767 31.98272946 3.1484375 31.9375 C2.10945312 31.958125 1.07046875 31.97875 0 32 C0 28.04 0 24.08 0 20 C1.14065918 19.97494385 2.28131836 19.9498877 3.45654297 19.92407227 C7.67964341 19.83005707 11.90257709 19.72982213 16.12548828 19.62768555 C17.95487575 19.58431435 19.78430427 19.54264089 21.61376953 19.50268555 C24.24003486 19.44503582 26.8660931 19.38132635 29.4921875 19.31640625 C30.72350906 19.29133751 30.72350906 19.29133751 31.97970581 19.26576233 C36.1233696 19.2568613 36.1233696 19.2568613 40 18 C39.62095792 14.70924004 39.62095792 14.70924004 38 12 C35.19023482 11.83982834 32.40226404 11.74049466 29.58984375 11.68359375 C28.74780899 11.66281265 27.90577423 11.64203156 27.03822327 11.62062073 C24.33806821 11.55503188 21.63781283 11.49619724 18.9375 11.4375 C17.11131759 11.39432363 15.28514546 11.35070964 13.45898438 11.30664062 C8.97276008 11.19934106 4.4864345 11.09810034 0 11 C0 7.37 0 3.74 0 0 Z " fill="#4FC959" transform="translate(232,234)"/>
<path d="M0 0 C0.84064499 0.00007553 1.68128998 0.00015106 2.54740906 0.00022888 C3.45062393 0.00539017 4.35383881 0.01055145 5.28442383 0.01586914 C6.21241287 0.01728409 7.14040192 0.01869904 8.09651184 0.02015686 C11.06152566 0.02575602 14.02646407 0.03830835 16.99145508 0.05102539 C19.00121961 0.0560405 21.01098533 0.06060339 23.02075195 0.06469727 C27.9485154 0.07572518 32.87622245 0.09298922 37.80395508 0.11352539 C37.80395508 4.07352539 37.80395508 8.03352539 37.80395508 12.11352539 C36.76464844 12.10305176 35.7253418 12.09257812 34.65454102 12.08178711 C30.79308526 12.04554603 26.93164451 12.02260998 23.07006836 12.00366211 C21.39979523 11.99361389 19.72953965 11.97997303 18.05932617 11.96264648 C15.65645004 11.93834613 13.25380681 11.92703052 10.85083008 11.91821289 C9.73342438 11.90272903 9.73342438 11.90272903 8.59344482 11.88693237 C4.86567999 11.8861284 1.90382912 11.90168665 -1.19604492 14.11352539 C-2.41050083 16.54243721 -2.3252869 18.12071982 -2.32885742 20.83227539 C-2.33014648 21.76426758 -2.33143555 22.69625977 -2.33276367 23.65649414 C-2.32889648 24.63231445 -2.3250293 25.60813477 -2.32104492 26.61352539 C-2.32491211 27.5893457 -2.3287793 28.56516602 -2.33276367 29.57055664 C-2.33083008 30.96854492 -2.33083008 30.96854492 -2.32885742 32.39477539 C-2.32772949 33.25135742 -2.32660156 34.10793945 -2.32543945 34.99047852 C-2.33190938 37.16844073 -2.33190938 37.16844073 -1.19604492 39.11352539 C18.10895508 39.60852539 18.10895508 39.60852539 37.80395508 40.11352539 C37.80395508 44.07352539 37.80395508 48.03352539 37.80395508 52.11352539 C31.64758977 52.21261261 25.49169158 52.28509792 19.3347168 52.33325195 C17.24153555 52.35333198 15.14841016 52.3806018 13.05541992 52.4152832 C10.04177039 52.46395973 7.02886434 52.48653051 4.01489258 52.50415039 C3.083414 52.52479553 2.15193542 52.54544067 1.19223022 52.56671143 C-4.41159439 52.56863434 -7.89575157 52.07859189 -12.19604492 48.11352539 C-15.10738052 43.70310936 -15.58009105 40.18477018 -15.59448242 34.95727539 C-15.5973526 34.29191772 -15.60022278 33.62656006 -15.60317993 32.94104004 C-15.60520976 31.5426345 -15.59975595 30.14419987 -15.5871582 28.74584961 C-15.57108673 26.61905758 -15.58704141 24.49416536 -15.60620117 22.36743164 C-15.60421855 21.00154208 -15.60037446 19.63565368 -15.59448242 18.26977539 C-15.59109863 17.0406543 -15.58771484 15.8115332 -15.58422852 14.54516602 C-15.01331897 9.498182 -13.41468703 6.24076934 -9.69604492 2.80102539 C-6.38126751 0.56355064 -3.90759617 -0.01173452 0 0 Z " fill="#4DC657" transform="translate(64.196044921875,233.886474609375)"/>
<path d="M0 0 C4.62 0 9.24 0 14 0 C16.188158 5.04918132 18.37520182 10.09884333 20.5612793 15.14892578 C21.30284609 16.86161873 22.04470063 18.57418711 22.78686523 20.28662109 C24.88875372 25.13669689 26.98416606 29.98947228 29.07122803 34.84594727 C29.91960044 36.81353346 30.77635503 38.77722785 31.63525391 40.74023438 C32.09206543 41.80048828 32.54887695 42.86074219 33.01953125 43.953125 C33.40858643 44.84676758 33.7976416 45.74041016 34.19848633 46.66113281 C35 49 35 49 35 53 C31.37 53 27.74 53 24 53 C23.90203125 52.10796875 23.8040625 51.2159375 23.703125 50.296875 C23.55359375 49.12640625 23.4040625 47.9559375 23.25 46.75 C23.11078125 45.58984375 22.9715625 44.4296875 22.828125 43.234375 C21.91129517 39.65354905 20.81664498 38.31285482 18 36 C18.33773437 36.53109375 18.67546875 37.0621875 19.0234375 37.609375 C20.29408516 40.71992048 19.98619346 42.92702015 19.625 46.25 C19.51414062 47.32765625 19.40328125 48.4053125 19.2890625 49.515625 C19.19367188 50.33546875 19.09828125 51.1553125 19 52 C18.34 52 17.68 52 17 52 C17 48.04 17 44.08 17 40 C10.07 40 3.14 40 -4 40 C-3.67 43.63 -3.34 47.26 -3 51 C-4.485 51.495 -4.485 51.495 -6 52 C-6.05384521 49.70858714 -6.09272087 47.41681812 -6.125 45.125 C-6.14820313 43.84882813 -6.17140625 42.57265625 -6.1953125 41.2578125 C-6 38 -6 38 -4 36 C-6.03079976 36.49289987 -6.03079976 36.49289987 -8 38 C-9.10877744 41.28819682 -9.10877744 41.28819682 -9.6875 45.0625 C-10.93672457 51.93672457 -10.93672457 51.93672457 -12 53 C-13.51928038 53.07179964 -15.04167482 53.08392007 -16.5625 53.0625 C-17.38878906 53.05347656 -18.21507812 53.04445313 -19.06640625 53.03515625 C-19.70449219 53.02355469 -20.34257812 53.01195312 -21 53 C-22.24262782 49.27211655 -21.63153383 48.50323724 -20.078125 44.9765625 C-19.61212891 43.90696289 -19.14613281 42.83736328 -18.66601562 41.73535156 C-18.11091337 40.49012902 -17.55555829 39.24501916 -17 38 C-16.36589678 36.55985179 -15.73246606 35.11940735 -15.09960938 33.67871094 C-13.35757139 29.72231223 -11.60223105 25.77197367 -9.84179688 21.82373047 C-8.73679587 19.34538518 -7.63385941 16.86612886 -6.53125 14.38671875 C-5.82824214 12.80723952 -5.12512141 11.22781053 -4.421875 9.6484375 C-4.09274109 8.90894867 -3.76360718 8.16945984 -3.42449951 7.40756226 C-1.11736061 2.23472122 -1.11736061 2.23472122 0 0 Z M1.46484375 17.5078125 C-1.52626784 20.55475818 -2.9118699 23.6486718 -3.1875 27.875 C-3.125625 28.57625 -3.06375 29.2775 -3 30 C-2.7525 29.401875 -2.505 28.80375 -2.25 28.1875 C-0.7457326 25.55503205 0.32507908 24.4459032 3 23 C7.18075636 22.69594499 10.93231851 23.0138954 15 24 C13.60846256 19.57238086 11.47928514 17.0443745 8 14 C5.06583073 14 3.60139361 15.65857374 1.46484375 17.5078125 Z M15 24 C16 26 16 26 16 26 Z M15 27 C16 30 16 30 16 30 Z M-2 31 C-1.67 31.99 -1.34 32.98 -1 34 C-1 33.01 -1 32.02 -1 31 C-1.33 31 -1.66 31 -2 31 Z M0 34 C0 34.99 0 35.98 0 37 C4.29 37 8.58 37 13 37 C12.67 36.34 12.34 35.68 12 35 C8.37 35.33 4.74 35.66 1 36 C0.67 35.34 0.34 34.68 0 34 Z " fill="#4DC457" transform="translate(312,234)"/>
<path d="M0 0 C10.82892473 -1.3154154 10.82892473 -1.3154154 16 0 C19.95495974 3.12066917 22.30079199 6.79862405 25 11 C26.29657223 12.36910774 27.6186668 13.7164603 29 15 C30.48185125 13.37744772 31.96040256 11.75188112 33.4375 10.125 C34.26121094 9.22007812 35.08492188 8.31515625 35.93359375 7.3828125 C38.00907942 5.18862073 38.00907942 5.18862073 39 3 C39.66 3 40.32 3 41 3 C41.33 2.01 41.66 1.02 42 0 C46.95 0 51.9 0 57 0 C55.35220496 4.1194876 54.67333108 5.68742877 51.875 8.6875 C48.35915311 12.55566558 45.11353096 16.58595226 41.89453125 20.703125 C40 23 40 23 37.91967773 24.79101562 C35.5135697 27.55973818 35.46779537 29.01361763 35.390625 32.640625 C35.35839844 33.71054687 35.32617188 34.78046875 35.29296875 35.8828125 C35.27878906 36.99398437 35.26460938 38.10515625 35.25 39.25 C35.20552734 40.93996094 35.20552734 40.93996094 35.16015625 42.6640625 C35.08951088 45.44278021 35.03678723 48.22066148 35 51 C35.99 51.495 35.99 51.495 37 52 C33.47320901 54.35119399 31.97120515 54.21443452 27.8125 54.125 C26.72582031 54.10695313 25.63914062 54.08890625 24.51953125 54.0703125 C23.68808594 54.04710937 22.85664063 54.02390625 22 54 C22.05760498 53.28046143 22.11520996 52.56092285 22.17456055 51.81958008 C23.91250073 36.14666156 23.91250073 36.14666156 18.52001953 22.078125 C16.59426593 20.07559932 14.60637242 18.18745547 12.50585938 16.36914062 C9.98330197 14.07560918 7.94992233 11.46726022 5.8125 8.8125 C5.07644531 7.93207031 4.34039062 7.05164063 3.58203125 6.14453125 C2 4 2 4 2 2 C1.34 2 0.68 2 0 2 C0 1.34 0 0.68 0 0 Z " fill="#50CC5B" transform="translate(410,234)"/>
<path d="M0 0 C12.36368248 -1.63200609 12.36368248 -1.63200609 16.69189453 1.04736328 C20.00504177 3.92932581 22.63881249 7.29988028 25 11 C25 11.66 25 12.32 25 13 C25.66 13 26.32 13 27 13 C27.66 13.66 28.32 14.32 29 15 C30.79419526 13.06478939 32.58541329 11.1269646 34.375 9.1875 C35.13683594 8.36668945 35.13683594 8.36668945 35.9140625 7.52929688 C38.15216303 5.09977985 40.16379112 2.75431332 42 0 C44.62697064 -0.22137393 47.00893964 -0.28162025 49.625 -0.1875 C50.33140625 -0.17396484 51.0378125 -0.16042969 51.765625 -0.14648438 C53.51074128 -0.1111104 55.25546608 -0.05730221 57 0 C55.73226533 3.59191491 54.32651478 6.07797269 51.75 8.875 C50.82574219 9.8959375 50.82574219 9.8959375 49.8828125 10.9375 C49.26148438 11.618125 48.64015625 12.29875 48 13 C46.86920349 14.28659513 45.74374124 15.57790871 44.625 16.875 C44.14289063 17.42929688 43.66078125 17.98359375 43.1640625 18.5546875 C41.9045572 20.01360037 41.9045572 20.01360037 41 22 C40.34 22 39.68 22 39 22 C38.690625 22.639375 38.38125 23.27875 38.0625 23.9375 C37 26 37 26 36 27 C35.85427264 28.84037134 35.77272082 30.68590714 35.71875 32.53125 C35.68136719 33.65144531 35.64398438 34.77164063 35.60546875 35.92578125 C35.57066406 37.10527344 35.53585938 38.28476562 35.5 39.5 C35.43145099 41.82304966 35.35876469 44.14598222 35.28125 46.46875 C35.25095703 47.50451172 35.22066406 48.54027344 35.18945312 49.60742188 C35 52 35 52 34 53 C32.33570949 53.09823937 30.66718069 53.12973631 29 53.125 C27.63875 53.12886719 27.63875 53.12886719 26.25 53.1328125 C24 53 24 53 23 52 C22.98848949 50.38116956 23.03496329 48.76186655 23.10546875 47.14453125 C23.59707615 32.44781575 23.59707615 32.44781575 16.5 20.1875 C14.89575714 18.57988384 13.26405339 17.02271537 11.58349609 15.49511719 C9.07178762 13.12359349 6.98102202 10.50132762 4.8125 7.8125 C4.09707031 6.95269531 3.38164063 6.09289062 2.64453125 5.20703125 C1 3 1 3 0 0 Z " fill="#51CF5B" transform="translate(107,234)"/>
<path d="M0 0 C4.62 0 9.24 0 14 0 C15.0044134 2.2898234 16.00367612 4.5816599 17 6.875 C17.28617187 7.52597656 17.57234375 8.17695313 17.8671875 8.84765625 C20 13.7734375 20 13.7734375 20 16 C19.34 16 18.68 16 18 16 C18 15.01 18 14.02 18 13 C17.01 13 16.02 13 15 13 C14.34 14.32 13.68 15.64 13 17 C12.01 16.34 11.02 15.68 10 15 C6.08292304 15.08334206 4.51130698 15.47449004 1.75 18.3125 C-0.78043148 22.19851977 -2.21451701 25.09785948 -2.625 29.75 C-2.69976562 30.54921875 -2.77453125 31.3484375 -2.8515625 32.171875 C-2.90054687 32.77515625 -2.94953125 33.3784375 -3 34 C-4.32 34 -5.64 34 -7 34 C-7.27714844 35.28777344 -7.55429687 36.57554687 -7.83984375 37.90234375 C-8.20553472 39.58077154 -8.57143072 41.25915468 -8.9375 42.9375 C-9.11990234 43.78763672 -9.30230469 44.63777344 -9.49023438 45.51367188 C-9.66748047 46.32255859 -9.84472656 47.13144531 -10.02734375 47.96484375 C-10.18968506 48.7137085 -10.35202637 49.46257324 -10.51928711 50.23413086 C-11 52 -11 52 -12 53 C-13.51928038 53.07179964 -15.04167482 53.08392007 -16.5625 53.0625 C-17.38878906 53.05347656 -18.21507812 53.04445313 -19.06640625 53.03515625 C-19.70449219 53.02355469 -20.34257812 53.01195312 -21 53 C-22.24262782 49.27211655 -21.63153383 48.50323724 -20.078125 44.9765625 C-19.61212891 43.90696289 -19.14613281 42.83736328 -18.66601562 41.73535156 C-18.11091337 40.49012902 -17.55555829 39.24501916 -17 38 C-16.36589678 36.55985179 -15.73246606 35.11940735 -15.09960938 33.67871094 C-13.35757139 29.72231223 -11.60223105 25.77197367 -9.84179688 21.82373047 C-8.73679587 19.34538518 -7.63385941 16.86612886 -6.53125 14.38671875 C-5.82824214 12.80723952 -5.12512141 11.22781053 -4.421875 9.6484375 C-4.09274109 8.90894867 -3.76360718 8.16945984 -3.42449951 7.40756226 C-1.11736061 2.23472122 -1.11736061 2.23472122 0 0 Z " fill="#4DC457" transform="translate(312,234)"/>
<path d="M0 0 C0.66 0.33 1.32 0.66 2 1 C2 1.66 2 2.32 2 3 C2.66 3.33 3.32 3.66 4 4 C3.54177532 7.46941546 3.10868317 10.67395049 2 14 C-1.63 14 -5.26 14 -9 14 C-11.63529412 6.91764706 -11.63529412 6.91764706 -11 3 C-7.85589032 -0.64716723 -4.57450806 -0.33885245 0 0 Z " fill="#4FC959" transform="translate(322,256)"/>
<path d="M0 0 C1.0625 1.8125 1.0625 1.8125 2 4 C1.67 4.99 1.34 5.98 1 7 C1.33 8.32 1.66 9.64 2 11 C6.29 11 10.58 11 15 11 C14.67 9.68 14.34 8.36 14 7 C14.66 6.34 15.32 5.68 16 5 C16.33 5.99 16.66 6.98 17 8 C17.99 8.33 18.98 8.66 20 9 C20 9.66 20 10.32 20 11 C20.66 11.33 21.32 11.66 22 12 C21.67 16.62 21.34 21.24 21 26 C20.34 26 19.68 26 19 26 C19 22.04 19 18.08 19 14 C12.07 14 5.14 14 -2 14 C-1.67 17.63 -1.34 21.26 -1 25 C-1.99 25.33 -2.98 25.66 -4 26 C-4.05384521 23.70858714 -4.09272087 21.41681812 -4.125 19.125 C-4.14820313 17.84882813 -4.17140625 16.57265625 -4.1953125 15.2578125 C-4 12 -4 12 -2 10 C-3.32 10.33 -4.64 10.66 -6 11 C-5.67 10.01 -5.34 9.02 -5 8 C-3.68 8 -2.36 8 -1 8 C-0.67 5.36 -0.34 2.72 0 0 Z " fill="#47854B" transform="translate(310,260)"/>
<path d="M0 0 C0.99 0.66 1.98 1.32 3 2 C3 2.66 3 3.32 3 4 C3.99 4 4.98 4 6 4 C5.71710528 6.25111973 5.42335307 8.50087686 5.125 10.75 C4.96257812 12.00296875 4.80015625 13.2559375 4.6328125 14.546875 C4 18 4 18 2 22 C-0.97 22 -3.94 22 -7 22 C-8.29599488 18.11201537 -7.38109952 16.94340925 -5.75 13.25 C-5.28722656 12.1878125 -4.82445312 11.125625 -4.34765625 10.03125 C-3.90292969 9.0309375 -3.45820313 8.030625 -3 7 C-2.39360279 5.58428667 -1.78891803 4.16783573 -1.1875 2.75 C-0.795625 1.8425 -0.40375 0.935 0 0 Z " fill="#4DC457" transform="translate(298,265)"/>
<path d="M0 0 C13.08699552 -1.38026906 13.08699552 -1.38026906 17.77734375 2.00390625 C19.72267743 4.25176922 21.43264545 6.47620864 23 9 C22.01 9 21.02 9 20 9 C18.29024679 9.10378694 16.58181079 9.23069238 14.875 9.375 C13.98554687 9.44460937 13.09609375 9.51421875 12.1796875 9.5859375 C11.46039063 9.72257813 10.74109375 9.85921875 10 10 C9.67 10.66 9.34 11.32 9 12 C7.49405319 10.38050958 5.99539332 8.75424026 4.5 7.125 C3.6646875 6.22007812 2.829375 5.31515625 1.96875 4.3828125 C0 2 0 2 0 0 Z " fill="#4FC759" transform="translate(107,234)"/>
<path d="M0 0 C1.64510941 0.00015915 3.29022379 0.00585551 4.93530273 0.01586914 C6.23164894 0.01799156 6.23164894 0.01799156 7.55418396 0.02015686 C10.32578941 0.025773 13.09731528 0.0383282 15.86889648 0.05102539 C17.74324428 0.05603831 19.61759334 0.06060158 21.49194336 0.06469727 C26.09679192 0.07574767 30.70158069 0.09302309 35.30639648 0.11352539 C34.97639648 0.77352539 34.64639648 1.43352539 34.30639648 2.11352539 C22.09639648 2.11352539 9.88639648 2.11352539 -2.69360352 2.11352539 C-2.69360352 5.08352539 -2.69360352 8.05352539 -2.69360352 11.11352539 C9.84639648 11.11352539 22.38639648 11.11352539 35.30639648 11.11352539 C35.30639648 11.44352539 35.30639648 11.77352539 35.30639648 12.11352539 C22.10639648 12.11352539 8.90639648 12.11352539 -4.69360352 12.11352539 C-4.69360352 0.14426106 -4.69360352 0.14426106 0 0 Z " fill="#28592C" transform="translate(173.693603515625,253.886474609375)"/>
<path d="M0 0 C2.31097404 2.86057532 3.82929391 5.58627129 5.1875 9 C5.53167969 9.845625 5.87585938 10.69125 6.23046875 11.5625 C7 14 7 14 7 18 C3.37 18 -0.26 18 -4 18 C-4.66 13.05 -5.32 8.1 -6 3 C-5.01 3.495 -5.01 3.495 -4 4 C-3.67 4.99 -3.34 5.98 -3 7 C-2.01 4.69 -1.02 2.38 0 0 Z " fill="#307937" transform="translate(340,269)"/>
<path d="M0 0 C0.66 0 1.32 0 2 0 C2.02886537 4.31248609 2.04675255 8.62494762 2.0625 12.9375 C2.07087891 14.16919922 2.07925781 15.40089844 2.08789062 16.66992188 C2.09111328 17.83974609 2.09433594 19.00957031 2.09765625 20.21484375 C2.10289307 21.29886475 2.10812988 22.38288574 2.11352539 23.49975586 C2 26 2 26 1 27 C-0.66429051 27.09823937 -2.33281931 27.12973631 -4 27.125 C-5.36125 27.12886719 -5.36125 27.12886719 -6.75 27.1328125 C-9 27 -9 27 -10 26 C-10.15786308 24.14825294 -10.25107356 22.2909089 -10.31640625 20.43359375 C-10.35830078 19.30888672 -10.40019531 18.18417969 -10.44335938 17.02539062 C-10.48267578 15.84138672 -10.52199219 14.65738281 -10.5625 13.4375 C-10.60568359 12.24962891 -10.64886719 11.06175781 -10.69335938 9.83789062 C-10.79983546 6.89205216 -10.90184841 3.9461257 -11 1 C-10.34 1 -9.68 1 -9 1 C-9 8.92 -9 16.84 -9 25 C-5.04 24.505 -5.04 24.505 -1 24 C-0.67 16.08 -0.34 8.16 0 0 Z " fill="#306834" transform="translate(140,260)"/>
<path d="M0 0 C13.53 0 27.06 0 41 0 C41 0.33 41 0.66 41 1 C39.99098633 1.01981934 38.98197266 1.03963867 37.94238281 1.06005859 C34.19245804 1.13623336 30.44291529 1.22493216 26.69335938 1.31738281 C25.07169141 1.35562358 23.44994004 1.39048503 21.828125 1.421875 C19.49448883 1.46763257 17.16142438 1.52560816 14.828125 1.5859375 C13.74352997 1.60326431 13.74352997 1.60326431 12.63702393 1.62094116 C8.9813512 1.72769706 6.05145862 1.86814607 3 4 C1.72138385 6.55723229 1.88663391 8.36737102 1.90234375 11.2265625 C1.90556641 12.2578125 1.90878906 13.2890625 1.91210938 14.3515625 C1.92048828 15.43179687 1.92886719 16.51203125 1.9375 17.625 C1.94201172 18.71296875 1.94652344 19.8009375 1.95117188 20.921875 C1.96298224 23.61463789 1.97945222 26.30729188 2 29 C1.34 28.67 0.68 28.34 0 28 C-0.0289337 24.20834926 -0.04677601 20.41672673 -0.0625 16.625 C-0.07087891 15.54476563 -0.07925781 14.46453125 -0.08789062 13.3515625 C-0.09111328 12.3203125 -0.09433594 11.2890625 -0.09765625 10.2265625 C-0.10289307 9.27346191 -0.10812988 8.32036133 -0.11352539 7.33837891 C0 5 0 5 1 3 C0.34 3 -0.32 3 -1 3 C-0.67 2.01 -0.34 1.02 0 0 Z " fill="#3C8341" transform="translate(60,244)"/>
<path d="M0 0 C1.0625 1.8125 1.0625 1.8125 2 4 C1.67 4.99 1.34 5.98 1 7 C1.33 8.32 1.66 9.64 2 11 C6.29 11 10.58 11 15 11 C14.67 9.68 14.34 8.36 14 7 C14.66 6.34 15.32 5.68 16 5 C16.33 5.99 16.66 6.98 17 8 C17.99 8.33 18.98 8.66 20 9 C20 9.99 20 10.98 20 12 C12.41 12 4.82 12 -3 12 C-2.67 11.34 -2.34 10.68 -2 10 C-3.32 10.33 -4.64 10.66 -6 11 C-5.67 10.01 -5.34 9.02 -5 8 C-3.68 8 -2.36 8 -1 8 C-0.67 5.36 -0.34 2.72 0 0 Z " fill="#1A371D" transform="translate(310,260)"/>
<path d="M0 0 C0.33 0 0.66 0 1 0 C1 7.92 1 15.84 1 24 C1.66 24.33 2.32 24.66 3 25 C0 27 0 27 -12 27 C-11.67 18.42 -11.34 9.84 -11 1 C-10.67 1 -10.34 1 -10 1 C-10 8.92 -10 16.84 -10 25 C-6.7 25 -3.4 25 0 25 C0 16.75 0 8.5 0 0 Z " fill="#0F2811" transform="translate(444,261)"/>
<path d="M0 0 C0.33 0 0.66 0 1 0 C1.33 3.3 1.66 6.6 2 10 C0.68 10 -0.64 10 -2 10 C-2.33 10.66 -2.66 11.32 -3 12 C-4.65 11.67 -6.3 11.34 -8 11 C-7.67 9.35 -7.34 7.7 -7 6 C-6.34 6 -5.68 6 -5 6 C-4.67 4.68 -4.34 3.36 -4 2 C-3.34 2.66 -2.68 3.32 -2 4 C-1.34 2.68 -0.68 1.36 0 0 Z " fill="#58E263" transform="translate(307,258)"/>
<path d="M0 0 C0.99 0 1.98 0 3 0 C3 0.99 3 1.98 3 3 C3.99 3 4.98 3 6 3 C6.33 4.65 6.66 6.3 7 8 C6.01 7.67 5.02 7.34 4 7 C1.66924071 7.95865509 1.66924071 7.95865509 0 11 C-0.598125 10.0925 -1.19625 9.185 -1.8125 8.25 C-3.48106766 5.77098519 -5.17936855 3.36682089 -7 1 C-4.525 1.99 -4.525 1.99 -2 3 C-1.34 2.01 -0.68 1.02 0 0 Z " fill="#41A649" transform="translate(327,247)"/>
<path d="M0 0 C0.66 0 1.32 0 2 0 C3.60080151 4.00200378 2.29279692 7.04556236 1 11 C0.34 10.01 -0.32 9.02 -1 8 C-1.99 8.66 -2.98 9.32 -4 10 C-4.33 9.34 -4.66 8.68 -5 8 C-5.33 8.99 -5.66 9.98 -6 11 C-6.99 11.33 -7.98 11.66 -9 12 C-8.01 9.03 -7.02 6.06 -6 3 C-4.02 3 -2.04 3 0 3 C0 2.01 0 1.02 0 0 Z " fill="#43A74B" transform="translate(308,253)"/>
<path d="M0 0 C0.99 0.66 1.98 1.32 3 2 C3 2.66 3 3.32 3 4 C3.99 4 4.98 4 6 4 C5.34 7.96 4.68 11.92 4 16 C3.67 16 3.34 16 3 16 C3 13.69 3 11.38 3 9 C2.01 9.66 1.02 10.32 0 11 C0 10.34 0 9.68 0 9 C-0.99 9 -1.98 9 -3 9 C-2.01 6.03 -1.02 3.06 0 0 Z " fill="#41A349" transform="translate(298,265)"/>
<path d="M0 0 C0.48500977 0.32145996 0.97001953 0.64291992 1.46972656 0.97412109 C5.08275796 2.43899546 8.64100351 2.35777184 12.484375 2.4140625 C13.29996887 2.43342865 14.11556274 2.4527948 14.95587158 2.4727478 C17.55380892 2.53239575 20.15179093 2.57886942 22.75 2.625 C24.51434194 2.66319342 26.27866551 2.70224595 28.04296875 2.7421875 C32.36182946 2.83808505 36.68077744 2.92217047 41 3 C41 3.33 41 3.66 41 4 C27.47 4.33 13.94 4.66 0 5 C0 3.35 0 1.7 0 0 Z " fill="#53BE5B" transform="translate(60,272)"/>
<path d="M0 0 C0.33 1.98 0.66 3.96 1 6 C1.66 6 2.32 6 3 6 C3 6.66 3 7.32 3 8 C0.03 8 -2.94 8 -6 8 C-6.36458333 3.50347222 -6.36458333 3.50347222 -4.6875 1.1875 C-3 0 -3 0 0 0 Z " fill="#59DE64" transform="translate(343,278)"/>
<path d="M0 0 C-0.33 4.62 -0.66 9.24 -1 14 C-1.66 14 -2.32 14 -3 14 C-3 10.04 -3 6.08 -3 2 C-9.93 2 -16.86 2 -24 2 C-24 1.67 -24 1.34 -24 1 C-20.37503356 0.83259796 -16.7500216 0.66620297 -13.125 0.5 C-12.09246094 0.45230469 -11.05992187 0.40460938 -9.99609375 0.35546875 C-9.00996094 0.31035156 -8.02382813 0.26523437 -7.0078125 0.21875 C-6.09660645 0.17685547 -5.18540039 0.13496094 -4.24658203 0.09179688 C-2.83190448 0.03399218 -1.41585803 0 0 0 Z " fill="#1F3A21" transform="translate(332,272)"/>
<path d="M0 0 C4.95 0 9.9 0 15 0 C14.67 0.99 14.34 1.98 14 3 C12.2578125 3.73046875 12.2578125 3.73046875 10.125 4.1875 C9.42632812 4.34605469 8.72765625 4.50460938 8.0078125 4.66796875 C6 5 6 5 3 5 C1.3125 3.625 1.3125 3.625 0 2 C0 1.34 0 0.68 0 0 Z " fill="#3A8C40" transform="translate(107,234)"/>
<path d="M0 0 C0.99 0.66 1.98 1.32 3 2 C-0.63 5.3 -4.26 8.6 -8 12 C-8.66 11.67 -9.32 11.34 -10 11 C-6.7 7.37 -3.4 3.74 0 0 Z " fill="#337E3A" transform="translate(448,239)"/>
<path d="M0 0 C0.66 0.66 1.32 1.32 2 2 C1 3 1 3 -2.37890625 3.09765625 C-3.77347077 3.09098369 -5.16801743 3.07902532 -6.5625 3.0625 C-7.27341797 3.05798828 -7.98433594 3.05347656 -8.71679688 3.04882812 C-10.47790013 3.03700864 -12.23896036 3.01907263 -14 3 C-14.33 2.34 -14.66 1.68 -15 1 C-12.54220024 0.77873822 -10.08472352 0.57249605 -7.625 0.375 C-6.57699219 0.27832031 -6.57699219 0.27832031 -5.5078125 0.1796875 C-3.67630889 0.03880261 -1.83687252 0.01238341 0 0 Z " fill="#2E5F32" transform="translate(286,284)"/>
<path d="M0 0 C1.67542976 0.28604898 3.34385343 0.61781233 5 1 C4.67 2.65 4.34 4.3 4 6 C2.35 6 0.7 6 -1 6 C-1.042721 4.33388095 -1.04063832 2.66617115 -1 1 C-0.67 0.67 -0.34 0.34 0 0 Z " fill="#3B8A42" transform="translate(317,278)"/>
<path d="M0 0 C0.66 0.33 1.32 0.66 2 1 C1.5205537 5.21912747 0.83374881 7.79663178 -2 11 C-2.309375 9.906875 -2.61875 8.81375 -2.9375 7.6875 C-3.58337897 5.44592006 -4.2623117 3.2130649 -5 1 C-3.68 1 -2.36 1 -1 1 C-0.67 0.67 -0.34 0.34 0 0 Z " fill="#5ADF65" transform="translate(338,268)"/>
<path d="M0 0 C2 3 2 3 2 6 C-0.64 6 -3.28 6 -6 6 C-5.67 4.35 -5.34 2.7 -5 1 C-4.67 1.66 -4.34 2.32 -4 3 C-2.68 2.67 -1.36 2.34 0 2 C0 1.34 0 0.68 0 0 Z " fill="#59E364" transform="translate(298,279)"/>
<path d="M0 0 C3.7952131 1.49097658 5.61042731 3.75700849 8 7 C5.69 7 3.38 7 1 7 C0.67 4.69 0.34 2.38 0 0 Z " fill="#43A74B" transform="translate(278,277)"/>
<path d="M0 0 C1.875 0.25 1.875 0.25 4 1 C5.25 3.0625 5.25 3.0625 6 5 C4.02 5.66 2.04 6.32 0 7 C-1.125 2.25 -1.125 2.25 0 0 Z " fill="#48B751" transform="translate(432,245)"/>
<path d="M0 0 C0.33 1.32 0.66 2.64 1 4 C3.64 4 6.28 4 9 4 C9.33 2.68 9.66 1.36 10 0 C10.33 0.66 10.66 1.32 11 2 C10.34 3.32 9.68 4.64 9 6 C6.03 6 3.06 6 0 6 C-1 3 -1 3 0 0 Z " fill="#2D6032" transform="translate(291,281)"/>
<path d="M0 0 C2 1.375 2 1.375 4 3 C4 3.66 4 4.32 4 5 C4.66 5 5.32 5 6 5 C7.7143618 6.95927063 9.38405168 8.95880212 11 11 C10.67 11.66 10.34 12.32 10 13 C5.89601599 9.72805658 2.28938344 6.84810612 0 2 C0 1.34 0 0.68 0 0 Z " fill="#235427" transform="translate(383,256)"/>
<path d="M0 0 C1.65 0 3.3 0 5 0 C2.25 4.875 2.25 4.875 0 6 C-1.125 2.25 -1.125 2.25 0 0 Z " fill="#3F9C47" transform="translate(158,236)"/>
<path d="M0 0 C3.96 0 7.92 0 12 0 C8.37192801 1.814036 5.96131197 2.56942261 2 3 C1.34 2.67 0.68 2.34 0 2 C0 1.34 0 0.68 0 0 Z " fill="#2D6231" transform="translate(264,264)"/>
<path d="M0 0 C1.65 0 3.3 0 5 0 C5.20086443 3.71599191 5.1519437 4.77208445 3 8 C1.0549 5.08235 0.54723683 3.37462715 0 0 Z " fill="#214B23" transform="translate(324,258)"/>
<path d="M0 0 C0 0.66 0 1.32 0 2 C-1.32 2.33 -2.64 2.66 -4 3 C-4 2.34 -4 1.68 -4 1 C-2 0 -2 0 0 0 Z " fill="#080A0A" transform="translate(484,206)"/>
<path d="" fill="#070808" transform="translate(0,0)"/>
</svg>
